# xmcd
#
# Track frame offsets: 
#        150
#        13253
#        25826
#        42284
#        56326
#        68976
#        81203
#        94733
#        105334
#        116247
#        135685
#
# Disc length: 2244 seconds
#
# Revision: 0
# Processed by: cddbd v1.5.2PL0 Copyright (c) Steve Scherf et al.
# Submitted via: ExactAudioCopy v0.99pb4
#
DISCID=8e08c20b
DTITLE=Tejas Brothers - Tejas Brothers
DYEAR=2008
DGENRE=Country
TTITLE0=I Can't Sleep
TTITLE1=Guitars And Girlfriends
TTITLE2=Love Me Or Leave Me Alone
TTITLE3=Sweet Lolita
TTITLE4=Get Gone
TTITLE5=I Can't Complain
TTITLE6=Same Thing Could Happen To You
TTITLE7=La Llorona
TTITLE8=Boogie Woogie Mamacita
TTITLE9=Doing a Real Good Job
TTITLE10=That's All I Need
EXTD=
EXTT0=
EXTT1=
EXTT2=
EXTT3=
EXTT4=
EXTT5=
EXTT6=
EXTT7=
EXTT8=
EXTT9=
EXTT10=
PLAYORDER=
